<svg width="360" height="100" viewBox="0 0 360 100" fill="none" xmlns="http://www.w3.org/2000/svg">
<rect x="47" y="17" width="230" height="58" fill="white"/>
<g filter="url(#filter0_d_1:239)">
<path d="M74.4337 48.5321L73.6495 55.3496C71.7448 56.3722 69.504 56.8267 67.0392 56.8267C63.1178 56.8267 59.9807 55.5768 57.5159 53.1907C55.051 50.691 53.8186 47.5095 53.8186 43.6463C53.8186 39.1013 55.2751 35.3517 58.0761 32.3974C60.877 29.5568 64.4623 28.0797 68.9438 28.0797C71.8568 28.0797 74.4337 28.7615 76.6745 30.0113L75.8902 36.7152C74.0976 34.8972 71.8568 33.9882 69.0559 33.9882C66.3669 33.9882 64.2382 34.8972 62.6697 36.6016C60.9891 38.3059 60.2048 40.4648 60.2048 43.0781C60.2048 45.4643 60.877 47.2823 62.3335 48.7594C63.79 50.2365 65.6947 50.9182 68.0475 50.9182C70.4003 50.9182 72.5291 50.1229 74.4337 48.5321Z" fill="url(#paint0_linear_1:239)"/>
<path d="M96.1693 56.2585L94.8248 51.0318H84.6293L82.0524 56.2585H75.3301L89.671 28.7614H95.497L102.78 56.2585H96.1693ZM86.9821 46.2595H93.7044L91.4636 36.6014L86.9821 46.2595Z" fill="url(#paint1_linear_1:239)"/>
<path d="M101.211 28.7614H107.709L112.415 46.3731L121.378 28.7614H128.324L113.647 56.2585H109.39L101.211 28.7614Z" fill="url(#paint2_linear_1:239)"/>
<path d="M146.587 28.7614L145.914 34.1017H137.063L136.391 39.4421H144.906L144.234 44.7824H135.719L134.934 50.9181H144.01L143.337 56.2585H128.324L131.685 28.7614H146.587Z" fill="url(#paint3_linear_1:239)"/>
<path d="M149.164 28.7614H155.662L160.367 46.3731L169.331 28.7614H176.277L161.6 56.2585H157.342L149.164 28.7614Z" fill="url(#paint4_linear_1:239)"/>
<path d="M190.282 28.1935C194.539 28.1935 197.9 29.4433 200.365 31.8295C202.942 34.3292 204.174 37.6243 204.174 41.6012C204.174 43.6464 203.838 45.6917 203.166 47.6233C202.494 49.5549 201.373 51.2593 200.029 52.7364C197.34 55.577 193.531 56.9405 188.825 56.9405C184.456 56.9405 181.094 55.6906 178.518 53.0772C175.941 50.4639 174.708 47.2824 174.708 43.4192C174.708 38.9878 176.165 35.2382 179.19 32.3976C181.991 29.557 185.8 28.1935 190.282 28.1935ZM190.058 33.9883C187.369 33.9883 185.24 34.8973 183.559 36.6017C181.879 38.3061 181.094 40.4649 181.094 42.9647C181.094 45.3508 181.879 47.2824 183.335 48.7595C184.792 50.3503 186.808 51.032 189.273 51.032C191.85 51.032 193.867 50.2366 195.323 48.6459C197.004 46.9415 197.788 44.669 197.788 41.8284C197.788 39.4423 197.116 37.5107 195.659 36.0336C194.203 34.7837 192.41 33.9883 190.058 33.9883Z" fill="url(#paint5_linear_1:239)"/>
<path d="M219.972 28.7614H228.487C230.055 28.7614 231.4 28.875 232.52 29.2159C233.641 29.5567 234.761 30.2385 235.657 31.2611C237.002 32.6246 237.562 34.5562 237.562 36.8287C237.562 39.3284 236.778 41.3737 235.321 42.8508C234.089 43.987 232.744 44.7824 231.064 45.1233L238.01 56.2585H230.728L224.229 45.4641L222.885 56.2585H216.611L219.972 28.7614ZM225.686 33.7608L224.79 41.26H226.358C227.927 41.26 229.159 40.9192 230.055 40.2374C230.952 39.5557 231.4 38.4194 231.4 37.0559C231.4 35.8061 230.952 34.8971 230.055 34.329C229.383 33.8745 228.263 33.6472 226.694 33.6472H225.686V33.7608Z" fill="url(#paint6_linear_1:239)"/>
<path d="M243.164 28.7614H249.438L247.645 43.7598C247.533 44.6688 247.421 45.4641 247.421 46.1459C247.421 47.7366 247.757 48.8729 248.654 49.6683C249.55 50.4636 250.67 50.9181 252.239 50.9181C254.031 50.9181 255.376 50.4636 256.272 49.5546C257.169 48.6456 257.729 46.9413 258.065 44.3279L259.969 28.7614H266.244L264.339 44.7824C264.115 46.2595 264.003 47.3958 263.891 48.1911C263.779 48.9865 263.443 49.8955 262.995 51.0318C262.546 52.168 261.874 53.1906 261.202 53.8724C259.297 55.804 256.384 56.8266 252.351 56.8266C248.542 56.8266 245.629 55.9176 243.724 53.986C242.155 52.3952 241.371 50.2364 241.371 47.623C241.371 46.714 241.483 45.2369 241.707 43.3053L243.164 28.7614Z" fill="url(#paint7_linear_1:239)"/>
<path d="M158.463 64.7804H160.144L159.807 67.2801L162.384 64.7804H164.625L161.152 67.9619L163.953 72.0524H161.936L159.919 69.0981L159.583 69.3254L159.247 72.0524H157.567L158.463 64.7804Z" fill="#000093"/>
<path d="M172.132 64.7806L171.235 71.939H169.555L170.227 66.2577H168.098L167.762 68.8711C167.65 69.212 167.65 69.5529 167.65 69.6665C167.65 69.7801 167.538 70.121 167.426 70.3482C167.314 70.5755 167.09 70.9163 166.866 71.1436C166.193 71.7117 165.409 72.0526 164.401 71.8253L164.625 70.3482C165.073 70.4618 165.521 70.3482 165.745 70.0073C165.969 69.7801 166.081 69.4392 166.193 68.8711L166.754 64.667H172.132V64.7806Z" fill="#000093"/>
<path d="M175.493 67.394H176.613C176.837 66.5986 177.174 65.9168 177.846 65.4623C178.518 64.8942 179.414 64.5533 180.423 64.5533C181.431 64.5533 182.215 64.8942 182.775 65.4623C183.448 66.0305 183.784 66.9395 183.784 67.9621C183.784 69.2119 183.336 70.2346 182.663 71.0299C181.879 71.8253 180.983 72.1662 179.75 72.1662C178.518 72.1662 177.622 71.8253 177.062 71.0299C176.613 70.4618 176.389 69.7801 176.389 68.9847H175.269L174.933 71.9389H173.252L174.148 64.7806H175.829L175.493 67.394ZM180.311 66.0305C179.75 66.0305 179.19 66.2577 178.742 66.5986C178.518 66.8258 178.294 67.1667 178.182 67.5076C178.07 67.8485 177.958 68.303 177.958 68.6438C177.958 69.2119 178.07 69.6664 178.406 70.0073C178.742 70.3482 179.19 70.5754 179.75 70.5754C180.423 70.5754 180.871 70.3482 181.319 69.8937C181.767 69.3256 182.103 68.6438 182.103 67.8485C182.103 67.2803 181.879 66.8258 181.543 66.485C181.319 66.2577 180.871 66.0305 180.311 66.0305Z" fill="#000093"/>
<path d="M188.489 71.939L188.825 69.0984C188.377 69.212 187.929 69.3256 187.481 69.3256C186.697 69.3256 186.136 69.0984 185.688 68.7575C185.24 68.4166 185.016 67.9621 185.016 67.394C185.016 67.1667 185.016 66.8259 185.128 66.485L185.352 64.667H187.033L186.809 66.3714C186.809 66.5986 186.809 66.8259 186.809 66.9395C186.809 67.2804 186.921 67.5076 187.145 67.6212C187.369 67.7349 187.705 67.8485 188.153 67.8485C188.489 67.8485 188.825 67.7349 189.162 67.6212L189.498 64.667H191.178L190.282 71.8253H188.489V71.939Z" fill="#000093"/>
<path d="M196.22 64.7804H197.901L197.565 67.2801L200.141 64.7804H202.382L198.909 67.9619L201.71 72.0524H199.693L197.677 69.0981L197.34 69.3254L197.004 72.0524H195.324L196.22 64.7804Z" fill="#000093"/>
<path d="M212.017 65.2351L211.793 67.0531C211.457 66.7123 211.233 66.5986 210.897 66.3714C210.561 66.1441 210.225 66.1441 209.889 66.1441C209.104 66.1441 208.544 66.3714 208.096 66.8259C207.648 67.2804 207.424 67.8485 207.424 68.6439C207.424 69.3256 207.648 69.7801 207.984 70.2346C208.32 70.5755 208.88 70.8027 209.44 70.8027C209.889 70.8027 210.225 70.6891 210.561 70.5755C210.897 70.3482 211.233 70.121 211.345 70.0074L211.121 71.8254C210.673 72.1662 209.889 72.2799 208.992 72.2799C207.984 72.2799 207.2 71.939 206.639 71.3709C205.967 70.6891 205.631 69.8937 205.631 68.7575C205.631 67.6213 205.967 66.5986 206.751 65.8033C207.536 65.0079 208.432 64.667 209.664 64.667C210.673 64.5534 211.457 64.7806 212.017 65.2351Z" fill="#000093"/>
<path d="M214.034 64.7804H215.715L215.378 67.2801L217.955 64.7804H220.196L216.723 67.9619L219.524 72.0524H217.507L215.491 69.0981L215.154 69.3254L214.818 72.0524H213.138L214.034 64.7804Z" fill="#000093"/>
<path d="M221.653 64.7805H223.333L222.773 68.871L228.151 64.0988L227.255 71.9389H225.574L226.134 67.7347L220.757 72.507L221.653 64.7805Z" fill="#000093"/>
<path d="M231.064 64.7804H236.33L235.658 70.4616H236.778L236.33 73.984H234.873L235.097 71.9388H230.168L229.944 73.984H228.487L228.935 70.4616C229.383 70.4616 229.719 70.2344 230.056 69.8935C230.504 69.439 230.728 68.7573 230.84 67.621L231.064 64.7804ZM234.089 70.4616L234.649 66.3711H232.52L232.296 68.3028C232.184 68.8709 232.072 69.3254 231.96 69.6663C231.736 70.0071 231.512 70.2344 231.288 70.5753H234.089V70.4616Z" fill="#000093"/>
<path d="M238.907 64.7804H240.587L240.251 67.2801L242.828 64.7804H245.069L241.596 67.9619L244.397 72.0524H242.38L240.363 69.0981L240.027 69.2118L239.691 71.9387H238.01L238.907 64.7804Z" fill="#000093"/>
<path d="M251.343 65.5758L251.455 64.7804H253.135L252.239 71.9388H250.559L250.671 71.1434C250.334 71.4843 249.998 71.7116 249.774 71.8252C249.438 72.0524 248.99 72.0524 248.43 72.0524C247.646 72.0524 246.973 71.8252 246.413 71.2571C245.741 70.5753 245.405 69.7799 245.405 68.6437C245.405 67.3938 245.853 66.2576 246.637 65.4622C247.309 64.7804 248.206 64.4396 249.214 64.4396C249.662 64.4396 250.11 64.5532 250.559 64.7804C250.783 65.0077 251.119 65.3486 251.343 65.5758ZM249.326 66.0303C248.766 66.0303 248.318 66.2576 247.87 66.5984C247.309 67.1666 247.085 67.7347 247.085 68.6437C247.085 69.2118 247.309 69.7799 247.646 70.1208C247.982 70.4617 248.318 70.6889 248.878 70.6889C249.438 70.6889 249.998 70.4617 250.447 70.0072C250.895 69.4391 251.119 68.8709 251.119 68.0756C251.119 67.3938 250.895 66.9393 250.559 66.5984C250.222 66.2576 249.886 66.0303 249.326 66.0303Z" fill="#000093"/>
<path d="M253.696 71.9389L256.385 64.0988L258.626 69.5527L262.211 64.0988L262.995 71.9389H261.314L261.09 68.3029L258.289 72.3934L256.497 68.3029L255.376 71.9389H253.696Z" fill="#000093"/>
<path d="M62.1094 72.3935C64.2132 72.3935 65.9187 70.6638 65.9187 68.5302C65.9187 66.3966 64.2132 64.667 62.1094 64.667C60.0055 64.667 58.3 66.3966 58.3 68.5302C58.3 70.6638 60.0055 72.3935 62.1094 72.3935Z" fill="#0047EE"/>
<path d="M76.3384 72.3934C78.4422 72.3934 80.1477 70.6637 80.1477 68.5301C80.1477 66.3965 78.4422 64.6669 76.3384 64.6669C74.2345 64.6669 72.5291 66.3965 72.5291 68.5301C72.5291 70.6637 74.2345 72.3934 76.3384 72.3934Z" fill="#0060F1"/>
<path d="M90.5671 72.3934C92.6709 72.3934 94.3764 70.6637 94.3764 68.5301C94.3764 66.3965 92.6709 64.6669 90.5671 64.6669C88.4633 64.6669 86.7578 66.3965 86.7578 68.5301C86.7578 70.6637 88.4633 72.3934 90.5671 72.3934Z" fill="#0079F5"/>
<path d="M104.684 72.3934C106.788 72.3934 108.494 70.6637 108.494 68.5301C108.494 66.3965 106.788 64.6669 104.684 64.6669C102.58 64.6669 100.875 66.3965 100.875 68.5301C100.875 70.6637 102.58 72.3934 104.684 72.3934Z" fill="#0091F8"/>
<path d="M118.913 72.3934C121.017 72.3934 122.722 70.6637 122.722 68.5301C122.722 66.3965 121.017 64.6669 118.913 64.6669C116.809 64.6669 115.104 66.3965 115.104 68.5301C115.104 70.6637 116.809 72.3934 118.913 72.3934Z" fill="#00AAFC"/>
<path d="M133.03 72.3934C135.134 72.3934 136.839 70.6637 136.839 68.5301C136.839 66.3965 135.134 64.6669 133.03 64.6669C130.926 64.6669 129.221 66.3965 129.221 68.5301C129.221 70.6637 130.926 72.3934 133.03 72.3934Z" fill="#00C3FF"/>
<path d="M208.992 55.1222C210.787 55.1222 212.241 53.6469 212.241 51.8271C212.241 50.0072 210.787 48.532 208.992 48.532C207.198 48.532 205.743 50.0072 205.743 51.8271C205.743 53.6469 207.198 55.1222 208.992 55.1222Z" fill="#0000C4"/>
</g>
<defs>
<filter id="filter0_d_1:239" x="-39.1814" y="-60.9203" width="398.425" height="231.904" filterUnits="userSpaceOnUse" color-interpolation-filters="sRGB">
<feFlood flood-opacity="0" result="BackgroundImageFix"/>
<feColorMatrix in="SourceAlpha" type="matrix" values="0 0 0 0 0 0 0 0 0 0 0 0 0 0 0 0 0 0 127 0" result="hardAlpha"/>
<feOffset dy="4"/>
<feGaussianBlur stdDeviation="46.5"/>
<feColorMatrix type="matrix" values="0 0 0 0 0 0 0 0 0 0 0 0 0 0 0 0 0 0 0.25 0"/>
<feBlend mode="normal" in2="BackgroundImageFix" result="effect1_dropShadow_1:239"/>
<feBlend mode="normal" in="SourceGraphic" in2="effect1_dropShadow_1:239" result="shape"/>
</filter>
<linearGradient id="paint0_linear_1:239" x1="54.6304" y1="42.5262" x2="260.41" y2="42.5262" gradientUnits="userSpaceOnUse">
<stop stop-color="#00008D"/>
<stop offset="0.3351" stop-color="#0000C4"/>
<stop offset="1" stop-color="#3374FF"/>
</linearGradient>
<linearGradient id="paint1_linear_1:239" x1="54.6305" y1="42.526" x2="260.41" y2="42.526" gradientUnits="userSpaceOnUse">
<stop stop-color="#00008D"/>
<stop offset="0.3351" stop-color="#0000C4"/>
<stop offset="1" stop-color="#3374FF"/>
</linearGradient>
<linearGradient id="paint2_linear_1:239" x1="54.6304" y1="42.526" x2="260.41" y2="42.526" gradientUnits="userSpaceOnUse">
<stop stop-color="#00008D"/>
<stop offset="0.3351" stop-color="#0000C4"/>
<stop offset="1" stop-color="#3374FF"/>
</linearGradient>
<linearGradient id="paint3_linear_1:239" x1="54.6303" y1="42.526" x2="260.41" y2="42.526" gradientUnits="userSpaceOnUse">
<stop stop-color="#00008D"/>
<stop offset="0.3351" stop-color="#0000C4"/>
<stop offset="1" stop-color="#3374FF"/>
</linearGradient>
<linearGradient id="paint4_linear_1:239" x1="54.6304" y1="42.526" x2="260.41" y2="42.526" gradientUnits="userSpaceOnUse">
<stop stop-color="#00008D"/>
<stop offset="0.3351" stop-color="#0000C4"/>
<stop offset="1" stop-color="#3374FF"/>
</linearGradient>
<linearGradient id="paint5_linear_1:239" x1="54.6303" y1="42.5263" x2="260.41" y2="42.5263" gradientUnits="userSpaceOnUse">
<stop stop-color="#00008D"/>
<stop offset="0.3351" stop-color="#0000C4"/>
<stop offset="1" stop-color="#3374FF"/>
</linearGradient>
<linearGradient id="paint6_linear_1:239" x1="54.6307" y1="42.526" x2="260.41" y2="42.526" gradientUnits="userSpaceOnUse">
<stop stop-color="#00008D"/>
<stop offset="0.3351" stop-color="#0000C4"/>
<stop offset="1" stop-color="#3374FF"/>
</linearGradient>
<linearGradient id="paint7_linear_1:239" x1="54.6305" y1="42.835" x2="260.41" y2="42.835" gradientUnits="userSpaceOnUse">
<stop stop-color="#00008D"/>
<stop offset="0.3351" stop-color="#0000C4"/>
<stop offset="1" stop-color="#3374FF"/>
</linearGradient>
</defs>
</svg>
